<svg width="49" height="48" viewBox="0 0 49 48" fill="none" xmlns="http://www.w3.org/2000/svg">
<g clip-path="url(#clip0_83_103)">
<path d="M24.223 1.59939C28.6943 1.5994 33.0652 2.91314 36.783 5.37448C40.5007 7.83583 43.3984 11.3342 45.1095 15.4273C46.8206 19.5204 47.2683 24.0242 46.396 28.3694C45.5237 32.7146 43.3705 36.7059 40.2088 39.8386C35.9691 44.0394 30.2189 46.3994 24.223 46.3994C18.2271 46.3994 12.4768 44.0395 8.23713 39.8386C3.99741 35.6378 1.61556 29.9403 1.61555 23.9995C1.61554 18.0586 3.99738 12.3611 8.23709 8.16025C10.3315 6.07368 12.8228 4.41943 15.5668 3.29326C18.3107 2.16708 21.2529 1.59135 24.223 1.59939ZM24.223 -0.000610352C19.4323 -0.000610352 14.7491 1.40696 10.7658 4.04412C6.7825 6.68127 3.67787 10.4296 1.84455 14.815C0.0112276 19.2004 -0.468453 24.026 0.466167 28.6815C1.40079 33.3371 3.70773 37.6135 7.09527 40.9699C10.4828 44.3264 14.7988 46.6122 19.4974 47.5382C24.1961 48.4643 29.0664 47.989 33.4924 46.1725C37.9184 44.356 41.7014 41.2798 44.363 37.3331C47.0246 33.3863 48.4452 28.7461 48.4452 23.9994C48.4452 17.6342 45.8932 11.5297 41.3507 7.02884C36.8081 2.52797 30.6471 -0.000600592 24.223 -0.000610352Z" fill="white"/>
<path d="M11.6835 27.4313V20.5899C11.0302 20.6818 10.3642 20.6106 9.74573 20.3827V27.5711C10.3699 27.3656 11.0359 27.3175 11.6835 27.4313V27.4313Z" fill="white"/>
<path d="M20.4711 37.4828C20.4881 37.4409 20.5057 37.3994 20.5239 37.3582C20.6027 37.1812 20.6946 37.0103 20.7989 36.8468C20.8745 36.7282 20.9565 36.6136 21.0444 36.5036L14.647 32.8439C14.3869 33.4465 13.9794 33.9753 13.4612 34.3826L20.2473 38.2646C20.2761 38.0986 20.3156 37.9346 20.3657 37.7737C20.3967 37.6748 20.4326 37.5782 20.4711 37.4828Z" fill="white"/>
<path d="M33.7203 32.9659C33.7203 32.9659 33.7165 32.958 33.7203 32.966L27.3501 36.61C27.7438 37.1379 27.997 37.7555 28.0865 38.4058L34.9656 34.4705C34.4303 34.0798 34.0021 33.5626 33.7203 32.9659Z" fill="white"/>
<path d="M31.7765 27.4313C32.7249 25.819 33.6364 24.1851 34.5111 22.5295C34.9111 21.7641 35.3022 20.9935 35.6845 20.2176C35.412 20.0834 35.156 19.9186 34.9216 19.7265C34.4097 20.4408 33.9086 21.1616 33.4184 21.8887C32.396 23.4072 31.4113 24.9479 30.4643 26.5108L28.6231 25.2193C28.4609 25.7623 28.1946 26.2692 27.8386 26.7122C27.7799 26.7858 27.7195 26.8578 27.6564 26.9275C27.6477 26.9371 27.6392 26.9469 27.6304 26.9565C27.6128 26.9757 27.5942 26.994 27.5762 27.0128L29.6084 27.9391C28.6043 29.6397 27.6404 31.3637 26.7166 33.1113C26.3404 33.8314 25.9717 34.5559 25.6106 35.2848C25.9024 35.3988 26.1795 35.5469 26.4361 35.7258C26.9013 35.0723 27.3578 34.4137 27.8055 33.75C28.9415 32.063 30.0319 30.349 31.0764 28.6082L33.6555 29.7837C33.7666 29.522 33.9061 29.273 34.0715 29.0411L31.7765 27.4313Z" fill="white"/>
<path d="M27.4797 24.4173C27.5934 23.6791 27.4432 22.9248 27.0551 22.2847C26.667 21.6446 26.0653 21.1591 25.3542 20.9119C24.6431 20.6647 23.8671 20.6715 23.1605 20.931C22.4539 21.1906 21.861 21.6867 21.4843 22.3334C21.1077 22.9802 20.9709 23.737 21.0977 24.4731C21.2245 25.2091 21.6069 25.8782 22.1787 26.3645C22.7506 26.8509 23.476 27.124 24.2295 27.1366C24.983 27.1492 25.7173 26.9006 26.3054 26.4337C26.939 25.9319 27.3583 25.2119 27.4797 24.4173Z" fill="white"/>
<path d="M27.5096 11.355V11.355L33.8726 14.9949C33.9645 14.8064 34.0714 14.6255 34.1924 14.4539C34.2546 14.3653 34.3196 14.2788 34.3889 14.1957C34.4293 14.1471 34.4709 14.0996 34.5136 14.053C34.6536 13.9008 34.8054 13.7596 34.9677 13.6309C35.0234 13.5864 35.0805 13.5435 35.1388 13.5022L28.2269 9.54831V9.54823C28.145 10.2007 27.8983 10.8221 27.5096 11.355Z" fill="white"/>
<path d="M22.2002 10.709C22.4232 10.9868 22.7004 11.2173 23.0152 11.3869C23.33 11.5564 23.676 11.6616 24.0326 11.696C24.1175 11.7041 24.2033 11.709 24.2904 11.709C24.3774 11.709 24.4632 11.7041 24.5481 11.696C25.2096 11.631 25.8232 11.3251 26.2701 10.8376C26.7169 10.35 26.9653 9.71546 26.967 9.05685C26.967 8.97708 26.9619 8.89849 26.955 8.82044C26.8957 8.16073 26.5894 7.5469 26.0962 7.0998C25.6031 6.6527 24.9588 6.40474 24.2904 6.40474C23.622 6.40474 22.9777 6.6527 22.4846 7.0998C21.9914 7.5469 21.6851 8.16073 21.6258 8.82044C21.6188 8.89849 21.6138 8.97708 21.6138 9.05685C21.6136 9.65766 21.8205 10.2405 22.2002 10.709Z" fill="white"/>
<path d="M15.0718 17.1438C15.9512 17.216 16.8306 17.2741 17.7099 17.3237C19.6287 17.4263 21.5477 17.4784 23.4664 17.4911L23.263 19.5743C23.9387 19.4176 24.6418 19.4176 25.3175 19.5743L25.1141 17.4917C27.0329 17.4806 28.9518 17.4253 30.8706 17.3259C31.7501 17.2765 32.6296 17.2184 33.5091 17.146V17.1459C33.4737 16.8476 33.4737 16.5461 33.5091 16.2477C32.6296 16.1752 31.7501 16.1172 30.8706 16.0678C28.9 15.9624 26.9294 15.9102 24.9587 15.9009L24.6725 12.9706C24.5467 12.9824 24.4193 12.9891 24.2903 12.9891C24.1613 12.9891 24.0338 12.9824 23.908 12.9706L23.6218 15.9015C21.6512 15.9122 19.6805 15.9645 17.7099 16.0699C16.8306 16.1195 15.9512 16.1776 15.0718 16.2498C15.1068 16.5468 15.1068 16.8468 15.0718 17.1438L15.0718 17.1438Z" fill="white"/>
<path d="M16.709 27.4981L14.3273 29.1687C14.4754 29.3951 14.5994 29.636 14.6975 29.8876L17.399 28.6562C18.4379 30.3786 19.5185 32.0765 20.6407 33.75C21.0757 34.3919 21.5176 35.0299 21.9664 35.6638C22.114 35.5667 22.2679 35.4795 22.4272 35.4028C22.43 35.4015 22.4326 35.4 22.4353 35.3987C22.5588 35.3399 22.6853 35.2876 22.8142 35.2419C22.4613 34.5266 22.0998 33.8164 21.7296 33.1113C20.8179 31.3783 19.8634 29.6703 18.8662 27.9875L21.0046 27.0128C20.6323 26.6251 20.334 26.1738 20.1241 25.6808C20.0858 25.5911 20.0515 25.4994 20.0191 25.4069C19.9973 25.3449 19.9769 25.2824 19.9577 25.2192L18.0221 26.577C17.0602 24.993 16.0621 23.4303 15.0278 21.8887C14.5515 21.1854 14.0666 20.4871 13.5732 19.7938C13.3306 19.9821 13.0667 20.1417 12.7869 20.2694C13.1596 21.0287 13.5423 21.7821 13.9351 22.5295C14.8191 24.2096 15.7437 25.8658 16.709 27.4981Z" fill="white"/>
<path d="M36.8973 28.687C36.2306 28.798 35.633 29.1604 35.2298 29.6981C34.8267 30.2358 34.6491 30.9073 34.7343 31.5718C34.8194 32.2364 35.1608 32.8425 35.6869 33.2633C36.2129 33.6841 36.8829 33.8869 37.5565 33.8293C38.23 33.7717 38.855 33.4582 39.3005 32.9543C39.746 32.4504 39.9775 31.7953 39.9465 31.1261C39.9155 30.4569 39.6245 29.8255 39.1342 29.3642C38.644 28.9029 37.9927 28.6473 37.3166 28.6511C37.1761 28.6522 37.0359 28.6641 36.8973 28.687Z" fill="white"/>
<path d="M13.5178 30.4253C13.296 29.8118 12.85 29.303 12.268 28.9995C11.6859 28.6961 11.0102 28.6199 10.3742 28.7862C9.73824 28.9525 9.18836 29.349 8.8332 29.8975C8.47804 30.4461 8.34344 31.1066 8.456 31.7487C8.56856 32.3908 8.92009 32.9676 9.44113 33.3654C9.96216 33.7631 10.6148 33.9527 11.2701 33.8967C11.9254 33.8408 12.5357 33.5433 12.9803 33.0631C13.425 32.5829 13.6717 31.9549 13.6717 31.3033C13.6711 31.0041 13.619 30.7072 13.5178 30.4253Z" fill="white"/>
<path d="M14.7081 14.9949L21.0712 11.355L21.0644 11.3456C21.0174 11.2807 20.9724 11.2144 20.9294 11.1466C20.6216 10.662 20.4252 10.1164 20.3539 9.54823V9.54831L13.442 13.5022C13.9834 13.8871 14.4187 14.4003 14.7081 14.9949Z" fill="white"/>
<path d="M12.8149 18.7544C13.3223 18.3452 13.6606 17.7658 13.7658 17.1261C13.8709 16.4863 13.7356 15.8305 13.3855 15.283C13.0353 14.7355 12.4947 14.3342 11.866 14.1551C11.2372 13.9761 10.564 14.0317 9.97393 14.3115C9.38382 14.5913 8.91777 15.0758 8.66405 15.6733C8.41032 16.2707 8.38655 16.9396 8.59724 17.5533C8.80793 18.167 9.23844 18.6827 9.80722 19.003C10.376 19.3232 11.0436 19.4256 11.6835 19.2908C11.8723 19.2508 12.0561 19.1904 12.2317 19.1107C12.4407 19.0171 12.6367 18.8974 12.8149 18.7544Z" fill="white"/>
<path d="M36.8972 20.5899V27.3931C37.0365 27.3785 37.1765 27.3712 37.3165 27.3711C37.8376 27.3706 38.3536 27.4721 38.835 27.6699V20.3827C38.2165 20.6106 37.5505 20.6818 36.8972 20.5899Z" fill="white"/>
<path d="M34.7745 16.6966C34.7681 17.4124 35.0432 18.1025 35.5417 18.6207C36.0401 19.1389 36.7226 19.4443 37.4445 19.4723C38.1664 19.5002 38.8709 19.2485 39.4087 18.7705C39.9464 18.2925 40.2752 17.6258 40.3251 16.9117C40.3751 16.1976 40.1424 15.4922 39.6764 14.9452C39.2104 14.3983 38.5477 14.0526 37.8289 13.9816C37.11 13.9105 36.3915 14.1197 35.8256 14.5647C35.2597 15.0097 34.891 15.6556 34.7977 16.3654C34.783 16.4752 34.7753 16.5858 34.7745 16.6966Z" fill="white"/>
<path d="M25.6804 36.7661C25.2789 36.4914 24.8092 36.3305 24.3221 36.3009C23.835 36.2713 23.349 36.3741 22.9166 36.5981C22.4842 36.8222 22.1217 37.1591 21.8684 37.5723C21.615 37.9856 21.4804 38.4596 21.4791 38.9431C21.4791 38.9522 21.4804 38.9611 21.4805 38.9702C21.487 39.6549 21.7608 40.3106 22.2444 40.7997C22.7281 41.2888 23.384 41.5735 24.0748 41.594C24.7656 41.6145 25.4376 41.3692 25.9499 40.9097C26.4623 40.4501 26.7751 39.8118 26.823 39.1287C26.8273 39.0671 26.8325 39.0057 26.8325 38.9431C26.8331 38.3274 26.6164 37.7308 26.22 37.2566C26.0635 37.0696 25.8819 36.9046 25.6804 36.7661Z" fill="white"/>
</g>
<defs>
<clipPath id="clip0_83_103">
<rect width="48.4444" height="48" fill="white" transform="translate(0.000854492)"/>
</clipPath>
</defs>
</svg>
