<svg width="49" height="48" viewBox="0 0 49 48" fill="none" xmlns="http://www.w3.org/2000/svg">
<g clip-path="url(#clip0_83_10)">
<path d="M24.2226 1.59942C28.6936 1.59943 33.0641 2.91317 36.7816 5.37451C40.499 7.83586 43.3964 11.3343 45.1074 15.4273C46.8184 19.5204 47.266 24.0243 46.3938 28.3694C45.5216 32.7146 43.3686 36.7059 40.2072 39.8386C35.9678 44.0394 30.218 46.3994 24.2227 46.3995C18.2273 46.3995 12.4775 44.0395 8.23814 39.8387C3.99878 35.6379 1.61713 29.9403 1.61712 23.9995C1.61711 18.0586 3.99875 12.3611 8.2381 8.16028C10.3323 6.07371 12.8234 4.41946 15.5672 3.29329C18.3109 2.16711 21.2528 1.59138 24.2226 1.59942ZM24.2226 -0.000579834C19.4323 -0.000579834 14.7496 1.407 10.7666 4.04415C6.78363 6.6813 3.67927 10.4296 1.8461 14.815C0.0129357 19.2004 -0.466705 24.026 0.467836 28.6816C1.40238 33.3371 3.70913 37.6135 7.09638 40.97C10.4836 44.3264 14.7993 46.6122 19.4975 47.5383C24.1958 48.4643 29.0656 47.989 33.4913 46.1725C37.917 44.356 41.6996 41.2799 44.361 37.3331C47.0223 33.3863 48.4428 28.7462 48.4428 23.9994C48.4428 17.6342 45.891 11.5297 41.3489 7.02887C36.8067 2.528 30.6462 -0.000570074 24.2226 -0.000579834Z" fill="#FF0091"/>
<path d="M24.2211 27.5902C24.8928 27.591 25.5579 27.4597 26.178 27.2038C26.7981 26.948 27.3607 26.5727 27.8333 26.0998C28.3059 25.6269 28.679 25.0657 28.931 24.4487C29.1831 23.8318 29.309 23.1715 29.3015 22.5059V13.9538C29.3076 13.2886 29.1805 12.6288 28.9278 12.0125C28.675 11.3963 28.3016 10.8357 27.8289 10.3633C27.3563 9.89086 26.7939 9.51591 26.1742 9.26008C25.5545 9.00425 24.8898 8.87262 24.2185 8.87279C23.5472 8.87296 22.8826 9.00493 22.263 9.26107C21.6435 9.51721 21.0813 9.89246 20.6089 10.3651C20.1365 10.8378 19.7633 11.3985 19.5109 12.0149C19.2584 12.6313 19.1318 13.2911 19.1381 13.9563V22.5085C19.1307 23.1741 19.2568 23.8345 19.5091 24.4515C19.7613 25.0684 20.1347 25.6295 20.6076 26.1023C21.0805 26.575 21.6434 26.95 22.2637 27.2054C22.8841 27.4608 23.5494 27.5916 24.2211 27.5902ZM19.9772 15.1659V14.0745C19.9772 12.9587 20.4246 11.8886 21.2208 11.0996C22.017 10.3106 23.0969 9.86735 24.2229 9.86735C25.349 9.86735 26.4289 10.3106 27.2251 11.0996C28.0213 11.8886 28.4687 12.9587 28.4687 14.0745V15.1759C28.4687 15.3881 28.3836 15.5916 28.2322 15.7416C28.0808 15.8917 27.8754 15.9759 27.6613 15.9759C27.4472 15.9759 27.2418 15.8917 27.0904 15.7416C26.939 15.5916 26.854 15.3881 26.854 15.1759V14.0745C26.854 13.383 26.5768 12.7199 26.0834 12.231C25.59 11.742 24.9207 11.4674 24.2229 11.4674C23.5252 11.4674 22.8559 11.742 22.3625 12.231C21.8691 12.7199 21.5919 13.383 21.5919 14.0745V15.1659C21.5919 15.378 21.5069 15.5815 21.3555 15.7316C21.204 15.8816 20.9987 15.9659 20.7846 15.9659C20.5705 15.9659 20.3651 15.8816 20.2137 15.7316C20.0623 15.5815 19.9772 15.378 19.9772 15.1659Z" fill="#FF0091"/>
<path d="M34.6159 18.0396C34.359 18.0396 34.1126 18.1407 33.9309 18.3208C33.7492 18.5008 33.6471 18.745 33.6471 18.9996V22.2991C33.6441 24.4089 32.9214 26.4557 31.5963 28.1071C30.2712 29.7585 28.4217 30.9176 26.348 31.3959V30.7348C26.348 30.176 26.124 29.6402 25.7253 29.2451C25.3266 28.8501 24.7858 28.6281 24.222 28.6281C23.6582 28.6281 23.1174 28.8501 22.7187 29.2451C22.32 29.6402 22.096 30.176 22.096 30.7348V31.3959C20.0223 30.9176 18.1728 29.7585 16.8477 28.1071C15.5226 26.4557 14.7999 24.4089 14.7969 22.2991V18.9692C14.7969 18.7146 14.6948 18.4704 14.5131 18.2904C14.3314 18.1103 14.085 18.0092 13.8281 18.0092C13.5711 18.0092 13.3247 18.1103 13.143 18.2904C12.9613 18.4704 12.8593 18.7146 12.8593 18.9692V22.2991C12.8629 24.9186 13.7868 27.4551 15.4724 29.4731C17.1579 31.4911 19.4998 32.8647 22.096 33.358V37.4534H18.6582C18.4013 37.4534 18.1549 37.5545 17.9732 37.7345C17.7915 37.9146 17.6894 38.1587 17.6894 38.4134C17.6894 38.668 17.7915 38.9121 17.9732 39.0922C18.1549 39.2722 18.4013 39.3734 18.6582 39.3734H29.7858C30.0427 39.3734 30.2891 39.2722 30.4708 39.0922C30.6525 38.9121 30.7546 38.668 30.7546 38.4134C30.7546 38.1587 30.6525 37.9146 30.4708 37.7345C30.2891 37.5545 30.0427 37.4534 29.7858 37.4534H26.348V33.358C28.9442 32.8647 31.2861 31.4911 32.9717 29.4731C34.6572 27.4551 35.5811 24.9186 35.5848 22.2991V18.9996C35.5847 18.745 35.4827 18.5008 35.301 18.3208C35.1193 18.1407 34.8729 18.0396 34.6159 18.0396Z" fill="#FF0091"/>
</g>
<defs>
<clipPath id="clip0_83_10">
<rect width="48.4404" height="48" fill="white" transform="translate(0.00280762)"/>
</clipPath>
</defs>
</svg>
