<svg width="50" height="48" viewBox="0 0 50 48" fill="none" xmlns="http://www.w3.org/2000/svg">
<g clip-path="url(#clip0_83_32)">
<path d="M25 1.59974C29.4709 1.59975 33.8415 2.91349 37.5589 5.37484C41.2764 7.83618 44.1738 11.3346 45.8847 15.4276C47.5957 19.5207 48.0434 24.0246 47.1711 28.3698C46.2989 32.715 44.1459 36.7063 40.9845 39.839C36.7452 44.0398 30.9954 46.3998 25 46.3998C19.0047 46.3998 13.2548 44.0398 9.01548 39.839C4.77612 35.6382 2.39447 29.9407 2.39446 23.9998C2.39445 18.059 4.77609 12.3614 9.01544 8.1606C11.1097 6.07403 13.6008 4.41978 16.3445 3.29361C19.0883 2.16743 22.0302 1.5917 25 1.59974ZM25 -0.000259399C20.2097 -0.000259399 15.527 1.40732 11.544 4.04447C7.56098 6.68162 4.45662 10.4299 2.62345 14.8153C0.790279 19.2008 0.310639 24.0264 1.24518 28.6819C2.17972 33.3375 4.48647 37.6138 7.87372 40.9703C11.261 44.3268 15.5766 46.6125 20.2749 47.5386C24.9731 48.4646 29.843 47.9894 34.2686 46.1728C38.6943 44.3563 42.477 41.2802 45.1383 37.3334C47.7997 33.3866 49.2202 28.7465 49.2202 23.9997C49.2201 17.6345 46.6684 11.5301 42.1262 7.02919C37.5841 2.52832 31.4236 -0.000249639 25 -0.000259399Z" fill="#4CFC00" fill-opacity="0.5"/>
<path d="M33.4819 11.8728C33.3859 11.4889 33.2743 11.1087 33.1408 10.6186C33.021 10.8292 32.9492 10.931 32.9012 11.0425C31.9083 13.3537 30.9172 15.6659 29.928 17.979C28.5625 21.1654 27.1974 24.3524 25.8327 27.5402C25.4728 28.384 24.859 28.9053 23.9451 29.0141C22.0906 29.235 20.825 27.4619 21.5773 25.702C23.8926 20.2897 26.2118 14.8795 28.535 9.47122C28.6139 9.28583 28.6939 9.09989 28.7828 8.89309C28.6718 8.88114 28.6349 8.86528 28.6116 8.87676C28.4808 8.93911 28.3494 9.00309 28.2242 9.07637C26.0451 10.3572 23.7298 11.2225 21.1793 11.374C20.7566 11.3991 20.6213 11.654 20.5535 12.0357C20.028 14.9994 19.5429 17.9719 18.9374 20.9192C17.9859 25.5564 16.4968 30.0352 14.6693 34.4028C14.6077 34.5216 14.5805 34.6551 14.5907 34.7883C14.601 34.9215 14.6483 35.0493 14.7273 35.1575C16.622 38.1333 20.336 39.698 23.7822 38.9351C23.891 38.9027 23.9921 38.8487 24.0792 38.7764C24.1663 38.7041 24.2376 38.615 24.2889 38.5145C26.0711 34.48 28.1044 30.5739 30.5864 26.9232C32.4613 24.1641 34.4814 21.5011 36.4578 18.8109C36.757 18.4039 36.7283 18.1168 36.4231 17.7477C35.0093 16.0335 34.0039 14.0254 33.4819 11.8728Z" fill="#4CFC00" fill-opacity="0.5"/>
<path d="M18.3515 16.9802C16.9032 20.3607 15.4548 23.7415 14.0061 27.1227C13.4628 28.371 13.2422 29.7338 13.3643 31.0879C13.4255 31.7944 13.606 32.4906 13.7335 33.1912C13.7942 33.1896 13.8555 33.1879 13.9162 33.1863C16.1075 27.8561 17.6587 22.2892 18.538 16.6001C18.4757 16.7265 18.4072 16.8505 18.3515 16.9802Z" fill="#4CFC00" fill-opacity="0.5"/>
<path d="M25.8722 38.2336C25.9327 38.2106 25.9917 38.1839 26.0488 38.1538C27.8685 37.2514 29.3007 35.7315 30.0846 33.8709C30.9478 31.8719 31.8059 29.8704 32.6588 27.8663C33.2935 26.3848 33.9284 24.9033 34.5635 23.422C31.0184 27.9876 28.0441 32.9617 25.7056 38.2358C25.761 38.241 25.8169 38.2403 25.8722 38.2336Z" fill="#4CFC00" fill-opacity="0.5"/>
<path d="M28.9151 14.4967C28.2573 14.2112 27.6595 14.4748 27.3273 15.2301C26.7317 16.5848 26.1465 17.944 25.5715 19.3079C25.5048 19.4504 25.4676 19.6048 25.4621 19.7618C25.4567 19.9189 25.483 20.0754 25.5397 20.2222C25.5963 20.3689 25.6821 20.5029 25.792 20.6163C25.9018 20.7296 26.0335 20.8199 26.1792 20.882C26.3219 20.9396 26.4747 20.9686 26.6288 20.9675C26.783 20.9663 26.9353 20.935 27.0772 20.8752C27.219 20.8155 27.3475 20.7286 27.4553 20.6194C27.5631 20.5103 27.6481 20.3811 27.7053 20.2393C28.0155 19.5496 28.3036 18.8507 28.6017 18.1556C28.6002 18.1549 28.5987 18.1544 28.5972 18.1539C28.8826 17.4883 29.1751 16.826 29.451 16.1571C29.7695 15.3849 29.5686 14.78 28.9151 14.4967Z" fill="#4CFC00" fill-opacity="0.5"/>
<path d="M24.5907 21.5954C23.9427 23.107 23.2965 24.619 22.6523 26.1315C22.3316 26.8878 22.5485 27.507 23.2136 27.7848C23.8731 28.0604 24.4687 27.7765 24.7954 27.0213C25.4418 25.5272 26.0849 24.0315 26.725 22.5344C26.7736 22.4037 26.8154 22.2707 26.8503 22.1357C25.7585 22.0421 25.7249 22.0286 24.764 21.265C24.6928 21.399 24.6337 21.4936 24.5907 21.5954Z" fill="#4CFC00" fill-opacity="0.5"/>
<path d="M30.3032 14.1039C30.6509 13.2923 30.976 12.5348 31.3082 11.7582C30.5985 11.4574 29.9224 11.1713 29.2226 10.8754C28.8864 11.6597 28.5612 12.4178 28.2136 13.2293C29.0641 13.196 29.7264 13.5133 30.3032 14.1039Z" fill="#4CFC00" fill-opacity="0.5"/>
</g>
<defs>
<clipPath id="clip0_83_32">
<rect width="48.4404" height="48" fill="white" transform="translate(0.779785)"/>
</clipPath>
</defs>
</svg>
