<svg width="48" height="48" viewBox="0 0 48 48" fill="none" xmlns="http://www.w3.org/2000/svg">
<g clip-path="url(#clip0_83_53)">
<path d="M24.0003 1.59879C28.4306 1.5988 32.7614 2.91254 36.445 5.37389C40.1287 7.83523 42.9997 11.3336 44.6951 15.4267C46.3905 19.5198 46.8341 24.0237 45.9698 28.3688C45.1055 32.714 42.9722 36.7053 39.8395 39.838C35.6387 44.0388 29.9411 46.3988 24.0003 46.3988C18.0594 46.3988 12.3619 44.0389 8.16107 39.838C3.96025 35.6372 1.60025 29.9397 1.60024 23.9989C1.60023 18.058 3.96022 12.3605 8.16103 8.15965C10.2362 6.07308 12.7047 4.41883 15.4235 3.29266C18.1423 2.16649 21.0574 1.59076 24.0003 1.59879ZM24.0003 -0.00120544C19.2535 -0.00120544 14.6133 1.40637 10.6666 4.04352C6.71979 6.68068 3.64365 10.429 1.82715 14.8144C0.010643 19.1998 -0.464637 24.0254 0.461408 28.681C1.38745 33.3365 3.67323 37.6129 7.02969 40.9693C10.3862 44.3258 14.6625 46.6116 19.3181 47.5376C23.9736 48.4637 28.7992 47.9884 33.1847 46.1719C37.5701 44.3554 41.3184 41.2793 43.9555 37.3325C46.5927 33.3857 48.0002 28.7455 48.0002 23.9988C48.0002 17.6336 45.4717 11.5291 40.9708 7.02824C36.4699 2.52737 30.3654 -0.00119568 24.0003 -0.00120544Z" fill="#130BFF" fill-opacity="0.5"/>
<path d="M33.9225 29.7985C33.8938 28.8824 33.7667 27.972 33.5434 27.0831C33.2123 25.7775 32.5785 24.5682 31.6932 23.553L31.478 23.3019C31.4017 23.22 31.3402 23.1329 31.2634 23.056C30.5133 22.282 29.6576 21.618 28.7217 21.0834L27.0569 21.6183L26.0145 21.9531L24.9459 22.2965C24.8968 22.3123 24.8469 22.325 24.797 22.338C25.1681 22.3544 25.3948 22.6508 25.2076 22.8916L24.701 23.5432C24.6736 23.5764 24.654 23.6154 24.6436 23.6572C24.6332 23.699 24.6323 23.7426 24.6409 23.7848L26.8159 33.8188L26.0212 34.2559L24.5029 35.0911L23.8899 35.4282L23.2769 35.0911L21.7585 34.2559L20.9639 33.8188L23.1387 23.7848C23.1474 23.7426 23.1465 23.699 23.1361 23.6572C23.1257 23.6154 23.1061 23.5765 23.0787 23.5432L22.5722 22.8916C22.3796 22.6438 22.6245 22.3364 23.0145 22.3364H23.1783C23.1201 22.3211 23.0619 22.3051 23.0045 22.2859L21.9818 21.9434L20.989 21.6109L19.3868 21.0742C19.3669 21.0668 19.3475 21.0581 19.3287 21.048C15.9405 22.9519 14.1573 25.8716 14.0583 29.8446C14.0173 31.5764 14.0583 33.3081 14.0583 35.0449C14.0583 35.8186 14.3811 36.1567 15.1496 36.1567H32.8517C33.6202 36.1567 33.943 35.8186 33.943 35.0449C33.9532 33.2927 33.9839 31.5456 33.9225 29.7985Z" fill="#130BFF" fill-opacity="0.5"/>
<path d="M17.7375 16.0265C17.7349 16.0538 17.7349 16.0812 17.7375 16.1085C17.7928 16.6337 17.9131 17.15 18.0956 17.6455C18.2288 17.9839 18.3918 18.3096 18.5828 18.619C18.937 19.2487 19.4084 19.8049 19.9715 20.2576L22.6298 21.1479L23.3094 21.3754C23.4925 21.4369 23.6844 21.4682 23.8775 21.4681H24.1051C24.2908 21.4682 24.4754 21.4392 24.6522 21.3823L25.3901 21.1453L27.9361 20.3274C28.8113 19.6559 29.4767 18.7487 29.8544 17.7122C29.8544 17.7122 30.0051 17.205 30.0644 16.9948C30.4273 15.8218 30.4219 14.5658 30.049 13.396C29.676 12.2261 28.9535 11.1987 27.9787 10.4522C26.8899 9.54508 25.5263 9.03314 24.1096 8.99966C22.6929 8.96619 21.3066 9.41314 20.1762 10.2678C19.2407 10.9558 18.528 11.9037 18.1268 12.9935C17.9183 13.4836 17.782 14.0013 17.7221 14.5305V14.5715C17.691 14.8436 17.6825 15.1177 17.6965 15.3912C17.6973 15.6036 17.711 15.8158 17.7375 16.0265Z" fill="#130BFF" fill-opacity="0.5"/>
</g>
<defs>
<clipPath id="clip0_83_53">
<rect width="48" height="48" fill="white"/>
</clipPath>
</defs>
</svg>
