<svg width="49" height="49" viewBox="0 0 49 49" fill="none" xmlns="http://www.w3.org/2000/svg">
<g clip-path="url(#clip0_83_71)">
<path d="M24.1789 1.68392C28.6092 1.69148 32.9378 3.0126 36.6172 5.48021C40.2967 7.94783 43.1618 11.4511 44.8502 15.5471C46.5386 19.643 46.9746 24.1476 46.1029 28.4913C45.2312 32.835 43.091 36.8227 39.953 39.9501C35.745 44.1437 30.0435 46.494 24.1026 46.4839C18.1618 46.4738 12.4683 44.1041 8.2746 39.8961C4.08094 35.6882 1.73064 29.9866 1.74076 24.0458C1.75087 18.105 4.12056 12.4115 8.32852 8.21779C10.4073 6.13476 12.8785 4.48472 15.5992 3.36318C18.32 2.24164 21.2361 1.67087 24.1789 1.68392ZM24.1816 0.0839267C19.4349 0.0758411 14.7923 1.47551 10.8411 4.10594C6.8898 6.73636 3.80727 10.4794 1.9833 14.8617C0.159332 19.2441 -0.324167 24.0688 0.593947 28.726C1.51206 33.3831 3.79055 37.6633 7.14129 41.0255C10.492 44.3877 14.7645 46.6808 19.4185 47.6147C24.0724 48.5487 28.8988 48.0816 33.2874 46.2726C37.6759 44.4636 41.4294 41.3938 44.0733 37.4515C46.7171 33.5093 48.1326 28.8715 48.1407 24.1248C48.1515 17.7596 45.6334 11.6508 41.1402 7.14227C36.647 2.63374 30.5468 0.094779 24.1816 0.0839267Z" fill="#FFB700"/>
<path d="M30.6535 34.9953L26.3488 34.9879L26.3814 15.8255L36.034 13.5074C36.2969 13.4442 36.524 13.2792 36.6652 13.0487C36.8065 12.8181 36.8504 12.5409 36.7872 12.2779C36.7241 12.015 36.5591 11.788 36.3285 11.6467C36.098 11.5054 35.8207 11.4615 35.5578 11.5247L26.2484 13.7604C26.0924 13.3286 25.8075 12.9551 25.4322 12.6907C25.0569 12.4262 24.6094 12.2836 24.1503 12.282L24.1502 12.282C23.557 12.2816 22.988 12.5166 22.5678 12.9353C22.1477 13.354 21.9108 13.9223 21.9091 14.5154L21.9086 14.8026L12.2561 17.1207C12.1257 17.1518 12.0028 17.2083 11.8943 17.287C11.7858 17.3656 11.6938 17.4649 11.6238 17.5791C11.5537 17.6933 11.5068 17.8203 11.4858 17.9526C11.4648 18.085 11.4701 18.2202 11.5013 18.3505C11.5326 18.4808 11.5893 18.6036 11.6681 18.712C11.747 18.8204 11.8464 18.9122 11.9607 18.9821C12.075 19.0521 12.202 19.0988 12.3344 19.1196C12.4668 19.1404 12.602 19.1349 12.7322 19.1034L21.9051 16.9005L21.8743 34.9803L17.5696 34.973C17.2992 34.9725 17.0397 35.0795 16.8482 35.2704C16.6566 35.4612 16.5488 35.7204 16.5483 35.9908C16.5479 36.2612 16.6548 36.5207 16.8457 36.7122C17.0366 36.9037 17.2957 37.0116 17.5661 37.012L30.65 37.0343C30.9204 37.0348 31.1799 36.9278 31.3714 36.7369C31.5629 36.5461 31.6708 36.2869 31.6713 36.0165C31.6717 35.7461 31.5647 35.4866 31.3739 35.2951C31.183 35.1036 30.9239 34.9957 30.6535 34.9953L30.6535 34.9953Z" fill="#FFB700"/>
<path d="M19.069 24.6937C19.1071 24.541 19.11 24.3816 19.0775 24.2276C19.045 24.0736 18.9779 23.9291 18.8813 23.8048C18.7847 23.6806 18.6611 23.58 18.5199 23.5105C18.3786 23.4411 18.2235 23.4046 18.0661 23.404L9.50821 23.3894C9.35084 23.3895 9.19556 23.4254 9.05411 23.4944C8.91266 23.5634 8.78873 23.6636 8.6917 23.7875C8.59468 23.9114 8.52709 24.0558 8.49404 24.2096C8.46099 24.3635 8.46335 24.5228 8.50094 24.6757C8.78776 25.8596 9.46375 26.9131 10.4206 27.6671C11.3774 28.4211 12.5597 28.8321 13.7779 28.8342C14.9961 28.8362 16.1798 28.4293 17.1392 27.6785C18.0985 26.9278 18.7781 25.8766 19.069 24.6937L19.069 24.6937Z" fill="#FFB700"/>
<path d="M39.1419 20.1674L30.584 20.1528C30.4266 20.153 30.2714 20.1889 30.1299 20.2579C29.9885 20.3268 29.8645 20.4271 29.7675 20.551C29.6705 20.6749 29.6029 20.8192 29.5698 20.9731C29.5368 21.1269 29.5392 21.2863 29.5767 21.4391C29.8636 22.6231 30.5395 23.6765 31.4964 24.4305C32.4532 25.1846 33.6355 25.5956 34.8537 25.5976C36.0719 25.5997 37.2556 25.1927 38.215 24.442C39.1743 23.6912 39.8539 22.6401 40.1448 21.4571C40.1829 21.3044 40.1858 21.1451 40.1533 20.9911C40.1208 20.8371 40.0537 20.6925 39.9571 20.5683C39.8604 20.4441 39.7369 20.3434 39.5956 20.274C39.4544 20.2045 39.2993 20.1681 39.1419 20.1674Z" fill="#FFB700"/>
</g>
<defs>
<clipPath id="clip0_83_71">
<rect width="48" height="48" fill="white" transform="translate(0.182251 0.0442505) rotate(0.0975978)"/>
</clipPath>
</defs>
</svg>
