<svg width="48" height="48" viewBox="0 0 48 48" fill="none" xmlns="http://www.w3.org/2000/svg">
<g clip-path="url(#clip0_83_24)">
<path d="M23.9993 1.59879C28.4296 1.5988 32.7604 2.91254 36.4441 5.37388C40.1277 7.83523 42.9988 11.3336 44.6942 15.4267C46.3896 19.5198 46.8332 24.0237 45.9689 28.3688C45.1046 32.714 42.9712 36.7053 39.8385 39.838C35.6369 44.0354 29.9405 46.3925 24.0015 46.3911C18.0626 46.3896 12.3673 44.0297 8.16783 39.8303C3.96836 35.6308 1.60847 29.9355 1.60701 23.9966C1.60556 18.0576 3.96265 12.3612 8.16006 8.15965C10.2352 6.07308 12.7037 4.41883 15.4225 3.29266C18.1413 2.16649 21.0565 1.59076 23.9993 1.59879ZM23.9993 -0.00120544C19.2525 -0.00120544 14.6124 1.40637 10.6656 4.04352C6.71881 6.68068 3.64267 10.429 1.82617 14.8144C0.00966644 19.1998 -0.465614 24.0254 0.460432 28.681C1.38648 33.3365 3.67226 37.6129 7.02872 40.9694C10.3852 44.3258 14.6616 46.6116 19.3171 47.5376C23.9727 48.4637 28.7983 47.9884 33.1837 46.1719C37.5691 44.3554 41.3174 41.2793 43.9545 37.3325C46.5917 33.3857 47.9993 28.7455 47.9993 23.9988C47.9993 17.6336 45.4707 11.5291 40.9698 7.02824C36.469 2.52737 30.3645 -0.00119568 23.9993 -0.00120544Z" fill="#FF0909" fill-opacity="0.5"/>
<path d="M33.8201 15.7727C33.7951 15.7605 33.7693 15.7499 33.743 15.7408L33.7434 15.7399C33.7434 15.7399 33.7341 15.737 33.7192 15.7326C33.7138 15.7309 33.7083 15.7294 33.7028 15.7277C33.6905 15.724 33.6746 15.7192 33.6566 15.7139C33.6321 15.7066 33.6016 15.6976 33.5668 15.6873C32.9048 15.4917 30.4124 14.7699 27.0949 13.986C24.1128 13.2813 23.0408 14.6719 21.0935 16.6192C19.3103 18.4024 11.5542 26.7953 10.0535 28.3893C9.91646 28.5349 9.8403 28.7273 9.84058 28.9273V31.8181C9.84057 31.9941 9.8996 32.165 10.0082 32.3034C10.1169 32.4418 10.2688 32.5398 10.4397 32.5816L17.6457 34.3459C17.7632 34.3746 17.8857 34.3759 18.0037 34.3496C18.1217 34.3233 18.232 34.2701 18.3261 34.1942L24.4532 29.4242L26.9451 27.4166L28.3211 26.308L27.0689 27.8227L25.5522 29.6575L29.7177 30.81L29.7182 30.8089C29.7871 30.8298 29.8564 30.8494 29.9272 30.8654C32.5426 31.4601 35.4379 28.5337 36.3939 24.3291C37.2958 20.3624 36.1489 16.6766 33.8201 15.7727ZM17.5562 33.256C17.5562 33.3233 17.5409 33.3897 17.5115 33.4502C17.482 33.5107 17.4392 33.5637 17.3863 33.6052C17.3334 33.6467 17.2717 33.6757 17.206 33.6899C17.1402 33.7041 17.0721 33.7032 17.0067 33.6872L10.6462 32.1305C10.5497 32.1069 10.4638 32.0515 10.4025 31.9734C10.3411 31.8952 10.3078 31.7987 10.3078 31.6993V29.7977C10.3078 29.7305 10.3231 29.6641 10.3525 29.6036C10.3819 29.5431 10.4247 29.49 10.4777 29.4485C10.5306 29.407 10.5923 29.378 10.658 29.3638C10.7238 29.3496 10.7919 29.3506 10.8573 29.3666L17.2178 30.9233C17.3143 30.9469 17.4001 31.0022 17.4615 31.0804C17.5228 31.1586 17.5562 31.2551 17.5562 31.3545V33.256ZM26.8706 19.6549L24.7368 21.8959C24.6777 21.9579 24.6033 22.0033 24.521 22.0274C24.4388 22.0515 24.3516 22.0535 24.2684 22.0331L19.0114 20.7475C18.9284 20.7272 18.8522 20.6854 18.7905 20.6264C18.7288 20.5673 18.6836 20.4931 18.6597 20.411C18.6357 20.329 18.6338 20.2422 18.654 20.1592C18.6742 20.0761 18.7159 19.9999 18.7749 19.9381L20.9081 17.7041C20.9672 17.6422 21.0414 17.597 21.1235 17.573C21.2055 17.549 21.2924 17.547 21.3755 17.5672L26.6331 18.8459C26.7161 18.8661 26.7923 18.9077 26.8541 18.9667C26.9159 19.0257 26.9612 19.0999 26.9852 19.1818C27.0093 19.2638 27.0114 19.3507 26.9913 19.4337C26.9712 19.5167 26.9296 19.593 26.8707 19.6549L26.8706 19.6549ZM35.2142 24.1727C34.6249 26.7647 32.8401 28.5687 31.2278 28.2022C31.1245 28.1786 31.0234 28.1463 30.9256 28.1059C29.5144 27.5247 28.8242 25.2698 29.3755 22.8452C29.9648 20.2533 31.7496 18.4492 33.3619 18.8159C33.6298 18.8781 33.8815 18.996 34.1007 19.1621C35.2111 19.99 35.7051 22.0137 35.2142 24.1727H35.2142Z" fill="#FF0909" fill-opacity="0.5"/>
</g>
<defs>
<clipPath id="clip0_83_24">
<rect width="48" height="48" fill="white"/>
</clipPath>
</defs>
</svg>
